<svg xmlns="http://www.w3.org/2000/svg" class="product__badge-icon" width="16" height="16" viewBox="0 0 1024 1024" aria-hidden="true"><path fill="currentColor" stroke="currentColor" stroke-width="35" stroke-linejoin="round" d="M261.773773,46.104836 C313.336395,72.529785 346.347412,114.079712 364.238831,168.220490 C365.496704,172.026855 366.900208,174.011566 371.298889,174.098221 C381.444427,174.298019 391.572296,175.277039 401.718109,175.606827 C428.688843,176.483536 455.662506,177.308609 482.640411,177.914185 C503.269470,178.377228 522.718018,182.332855 539.044495,195.949356 C549.573730,204.730896 558.275269,215.350327 567.612366,225.311661 C587.895630,246.950958 607.932495,268.820923 628.099060,290.569824 C664.579468,329.912598 701.072571,369.243530 737.576233,408.564697 C770.226685,443.735260 802.910828,478.874542 835.557312,514.048767 C864.235413,544.947388 892.989807,575.776367 921.505432,606.824463 C941.256287,628.329285 940.594788,661.929199 919.476196,682.287903 C895.490540,705.410522 870.799194,727.801758 846.382874,750.476807 C809.148621,785.055847 771.900391,819.619873 734.633301,854.163574 C699.687744,886.555481 664.651978,918.850403 629.790955,951.332886 C621.935425,958.652527 614.188049,965.984314 603.651001,969.210327 C582.734802,975.614136 563.462524,972.703857 547.702515,956.946777 C532.509766,941.756836 518.191711,925.689514 503.552063,909.949280 C478.130463,882.616821 452.763702,855.233337 427.361847,827.882446 C387.218811,784.659241 347.064850,741.446167 306.917114,698.227417 C268.811096,657.206421 230.703537,616.186951 192.604248,575.159790 C178.430283,559.896545 164.349167,544.546387 150.099640,529.354187 C126.170731,503.842224 121.275726,474.774689 132.393433,441.969238 C148.636246,394.041016 164.212326,345.886993 180.209015,297.874695 C181.338211,294.485535 180.442337,292.787048 177.745560,290.896149 C160.375000,278.716675 144.015549,265.341370 129.789429,249.508560 C108.270287,225.559021 93.357384,198.138824 91.272202,165.709061 C88.757462,126.598679 97.181351,89.951462 124.238800,59.952137 C141.303772,41.031750 163.522186,32.027508 188.959793,30.606369 C214.550247,29.176693 238.593338,34.621777 261.773773,46.104836 M347.071930,218.192566 C346.615845,213.554718 346.033417,208.924728 345.743805,204.276505 C345.513947,200.586746 343.881592,199.104599 340.114441,198.949295 C320.809204,198.153381 301.513733,197.070023 282.183838,197.140793 C278.536835,197.154129 274.870209,197.087112 271.247040,197.936432 C249.108582,203.126053 234.572296,216.434433 227.496521,238.119797 C214.845306,276.892365 202.003922,315.602875 189.240631,354.338898 C177.832596,388.961700 166.386749,423.572113 155.049301,458.218018 C153.183258,463.920349 152.287506,469.814240 152.737305,475.893585 C153.849915,490.930756 160.730988,502.922516 171.036224,513.673035 C190.056732,533.515442 208.589188,553.826172 227.298813,573.966064 C273.564178,623.768188 319.810272,673.588196 366.072937,723.392883 C393.059082,752.445190 420.075256,781.469604 447.054321,810.528564 C485.597290,852.042847 524.059875,893.632141 562.681152,935.073486 C576.195923,949.575012 593.035461,949.925720 607.630188,936.412659 C619.244141,925.659363 630.789734,914.832214 642.391968,904.066162 C688.311829,861.456055 734.235840,818.850342 780.171204,776.256836 C801.305969,756.659668 822.474915,737.099304 843.620300,717.513611 C862.198669,700.305603 880.850220,683.175476 899.309753,665.840942 C913.044678,652.942993 913.427673,635.732910 900.655090,622.012573 C887.939819,608.353943 875.257507,594.664673 862.564697,580.985107 C807.486450,521.625305 752.408264,462.265472 697.332947,402.902985 C665.035278,368.091248 632.750916,333.267181 600.445435,298.462677 C576.868225,273.061615 553.235413,247.712067 529.690125,222.281509 C519.979065,211.792938 508.126068,205.174911 493.892548,204.528824 C455.791229,202.799286 417.663605,201.638214 379.543121,200.350540 C371.743286,200.087067 371.534088,200.378098 372.456268,208.065979 C374.876984,228.246902 373.863861,248.246170 369.349579,268.041168 C368.570099,271.459351 369.249725,273.234924 372.330383,275.256256 C397.251190,291.607544 411.033020,314.569275 412.370178,344.574890 C414.820374,399.556641 362.947540,442.507660 309.226776,430.495972 C267.826355,421.239075 236.793152,380.595062 243.555649,334.044952 C250.035721,289.438904 294.040405,256.509918 338.772705,263.406525 C342.080841,263.916565 343.862061,263.140259 344.462677,259.807404 C346.889740,246.340225 348.571838,232.826279 347.071930,218.192566 M303.768280,171.656357 C314.833069,171.656357 325.897858,171.656357 337.024506,171.656357 C337.036926,171.582428 337.185852,171.245514 337.125488,170.951614 C336.958405,170.138458 336.756989,169.324188 336.476501,168.543686 C324.880157,136.275269 306.454132,108.695343 279.166656,87.704056 C251.741806,66.607063 221.505142,53.183796 185.742889,57.235943 C167.580032,59.293941 152.315384,67.047585 140.429108,80.996239 C130.134598,93.076973 124.833542,107.567169 120.852974,122.682068 C112.782486,153.327148 116.283928,182.321838 132.743866,209.606873 C145.274704,230.378769 162.653305,246.528549 181.629623,261.162018 C184.193512,263.139160 186.565857,265.560486 190.255905,266.512451 C191.107437,264.269073 191.935837,262.297943 192.610016,260.275421 C196.348114,249.060913 199.885483,237.776688 203.794479,226.622513 C213.384033,199.259201 232.674561,182.086716 260.152008,173.801437 C274.164429,169.576279 288.512360,170.656128 303.768280,171.656357 M331.200684,288.821075 C327.524963,287.826813 323.903198,288.771423 320.289093,289.209900 C289.409546,292.956390 263.856598,320.933990 269.722137,357.313660 C274.470764,386.766052 299.160400,406.316437 329.139984,405.903473 C372.462585,405.306641 400.253113,358.179535 379.749298,320.043274 C375.033936,311.272858 368.652588,304.028076 359.827667,298.430542 C358.480865,301.057373 357.305511,303.226562 356.240021,305.448425 C350.299316,317.836609 342.748810,329.178833 333.901794,339.658142 C329.989594,344.292114 324.973938,346.846497 318.879547,345.239716 C308.859802,342.597961 306.025116,331.347900 313.263062,322.962463 C321.044342,313.947632 327.586182,304.158936 332.682892,293.413849 C333.381866,291.940338 335.741058,289.789337 331.200684,288.821075 z"/></svg>