<svg width="22" height="22" viewBox="0 0 22 22" fill="none" xmlns="http://www.w3.org/2000/svg">
<path d="M9.56314 0.0634251C7.33296 0.35133 5.19731 1.34825 3.53434 2.88231C1.57488 4.69137 0.324429 7.1536 0.0451193 9.75762C-0.0150398 10.2948 -0.0150398 11.6956 0.0451193 12.2327C0.552174 16.9166 4.12304 20.8441 8.72951 21.7851C10.1604 22.073 11.9394 22.073 13.3145 21.7765C15.9228 21.2136 18.2217 19.7354 19.8288 17.5912C20.9848 16.0485 21.6981 14.2824 21.9344 12.3702C22.0204 11.6741 22.0204 10.3205 21.9344 9.62012C21.7453 8.08177 21.2125 6.5563 20.4175 5.26289C18.6472 2.37955 15.6994 0.471647 12.3734 0.0591278C11.7074 -0.0225163 10.2163 -0.018219 9.56314 0.0634251ZM12.5496 1.68772C14.5263 2.02289 16.2322 2.90809 17.6588 4.33472C19.137 5.81291 20.0308 7.5919 20.3488 9.70606C20.4519 10.3764 20.4519 11.614 20.3488 12.2843C20.0437 14.3125 19.1972 16.0485 17.7877 17.5439C16.8768 18.5108 15.3943 19.4604 14.1094 19.903C12.3691 20.5046 10.5343 20.5948 8.76818 20.1651C7.47906 19.8472 6.15986 19.2026 5.11996 18.369C3.50856 17.0841 2.31827 15.2235 1.82841 13.2254C1.47175 11.7644 1.47175 10.226 1.82841 8.765C2.24092 7.08484 3.08745 5.58517 4.3379 4.33472C5.96649 2.70613 7.96463 1.78655 10.3538 1.5674C10.8265 1.52443 11.948 1.58459 12.5496 1.68772Z" fill="#707070"/>
<path d="M10.0831 5.51644C9.65341 5.59808 9.18933 5.77856 8.87994 5.98482C7.75411 6.73251 7.68965 8.14625 8.77681 8.23219C9.12917 8.26227 9.26668 8.18922 9.49013 7.86264C9.84249 7.34699 10.1991 7.15362 10.805 7.15792C11.2133 7.15792 11.4238 7.20949 11.6945 7.38137C12.193 7.69505 12.2231 8.35251 11.7676 8.90253C11.6945 8.99277 11.3937 9.25919 11.1015 9.49553C10.1476 10.2647 9.86827 10.8061 9.86397 11.8976C9.85967 12.714 9.9757 12.8859 10.5687 12.9203C10.964 12.9418 11.2347 12.873 11.3851 12.714C11.4883 12.6023 11.5012 12.5465 11.5441 12.0394C11.6086 11.2358 11.7074 11.0597 12.4766 10.4194C13.4692 9.59436 13.9591 8.74354 13.9634 7.85834C13.9634 6.77978 13.1813 5.90317 11.9223 5.5766C11.4625 5.46058 10.5515 5.4305 10.0831 5.51644Z" fill="#707070"/>
<path d="M10.453 13.9215C10.1994 13.9688 10.0533 14.0547 9.85138 14.2739C9.64082 14.5016 9.56348 14.7165 9.56348 15.0559C9.56777 15.361 9.64512 15.5587 9.84279 15.7864C10.41 16.431 11.5143 16.1818 11.755 15.3524C11.9913 14.5274 11.2909 13.7582 10.453 13.9215Z" fill="#707070"/>
</svg>